<svg width="126" height="13" viewBox="0 0 126 13" fill="none" xmlns="http://www.w3.org/2000/svg">
<path d="M0.257812 7.80327V6.05327L7.25781 2.97088V4.98438L2.4652 6.90838L2.52983 6.80398V7.05256L2.4652 6.94815L7.25781 8.87216V10.8857L0.257812 7.80327ZM16.1515 12.52C15.7142 12.52 15.1702 12.2587 14.5195 11.736C14.0608 11.6613 13.6662 11.56 13.3355 11.432C13.0155 11.3147 12.7488 11.1707 12.5355 11C12.2368 10.744 11.9755 10.4027 11.7515 9.976C11.5275 9.54933 11.4155 9.13867 11.4155 8.744C11.4155 8.44533 11.4848 8.17867 11.6235 7.944C11.9435 7.37867 12.3488 7.096 12.8395 7.096C13.2128 7.096 13.4315 7.41067 13.4955 8.04C13.5702 8.62667 13.6288 9.096 13.6715 9.448C13.7248 9.78933 13.7675 10.0133 13.7995 10.12C13.9595 10.6427 14.2315 11.0853 14.6155 11.448C15.0635 11.544 15.5488 11.592 16.0715 11.592C17.2235 11.592 18.3275 11.3733 19.3835 10.936C19.8315 10.744 20.2688 10.4933 20.6955 10.184C21.1222 9.87467 21.4742 9.53333 21.7515 9.16C22.0288 8.78667 22.1675 8.424 22.1675 8.072C22.1675 7.57067 21.7248 7.18133 20.8395 6.904L18.0235 6.264C17.4475 6.136 16.9835 5.912 16.6315 5.592C16.2902 5.26133 16.1195 4.888 16.1195 4.472C16.1195 3.832 16.5195 3.192 17.3195 2.552C17.7248 2.22133 18.1995 1.944 18.7435 1.72C19.2875 1.48533 19.8582 1.30933 20.4555 1.192C21.0635 1.064 21.6448 1 22.1995 1C22.9888 1 23.6608 1.12267 24.2155 1.368C24.7808 1.61333 25.1328 1.97067 25.2715 2.44C25.3035 2.54667 25.3195 2.664 25.3195 2.792C25.3195 3.44267 24.9942 3.896 24.3435 4.152C23.9488 4.312 23.6128 4.392 23.3355 4.392C23.1648 4.392 23.0315 4.36 22.9355 4.296C22.9142 4.27467 22.9035 4.248 22.9035 4.216C22.9035 4.14133 23.0528 4.09867 23.3515 4.088C23.5328 4.07733 23.6822 4.06133 23.7995 4.04C23.9168 4.01867 24.0022 3.99733 24.0555 3.976C24.4608 3.76267 24.6635 3.448 24.6635 3.032C24.6635 2.81867 24.6048 2.59467 24.4875 2.36C24.1568 1.752 23.3302 1.448 22.0075 1.448C21.5275 1.448 21.0315 1.50133 20.5195 1.608C20.0075 1.704 19.5222 1.85333 19.0635 2.056C18.6048 2.248 18.2155 2.49333 17.8955 2.792C17.3408 3.304 17.0635 3.76267 17.0635 4.168C17.0635 4.47733 17.2128 4.75467 17.5115 5C17.8208 5.23467 18.2848 5.41067 18.9035 5.528L20.7915 5.88C21.5168 6.01867 22.1035 6.22667 22.5515 6.504C22.9995 6.77067 23.2235 7.18133 23.2235 7.736C23.2235 8.22667 23.1008 8.68533 22.8555 9.112C22.6102 9.53867 22.2795 9.92267 21.8635 10.264C21.4582 10.5947 20.9942 10.872 20.4715 11.096C19.2875 11.6187 17.8902 11.88 16.2795 11.88C16.0768 11.88 15.8742 11.8747 15.6715 11.864C15.4688 11.8533 15.2715 11.8373 15.0795 11.816C15.2288 11.9013 15.4155 11.9867 15.6395 12.072C15.8742 12.1573 16.1408 12.2373 16.4395 12.312C16.4715 12.3227 16.4875 12.344 16.4875 12.376C16.4875 12.472 16.3755 12.52 16.1515 12.52ZM14.0395 11.288C13.7515 10.968 13.5275 10.6373 13.3675 10.296C13.1328 9.76267 12.9568 9.10667 12.8395 8.328C12.7542 7.76267 12.6635 7.48 12.5675 7.48C12.4822 7.48 12.3648 7.544 12.2155 7.672C12.0768 7.8 12.0075 8.072 12.0075 8.488C12.0075 9.29867 12.2955 10.0027 12.8715 10.6C13.1595 10.8987 13.5488 11.128 14.0395 11.288ZM24.1842 11.048C24.1203 11.048 24.0296 11.0213 23.9123 10.968C23.7949 10.904 23.6883 10.8347 23.5922 10.76C23.4962 10.6747 23.4429 10.6 23.4322 10.536C23.4216 10.4507 23.4802 10.2107 23.6082 9.816C23.7256 9.41067 23.9176 8.86133 24.1842 8.168C24.4509 7.464 24.6749 6.92 24.8563 6.536C25.0376 6.152 25.1709 5.92267 25.2563 5.848C25.2989 5.80533 25.3576 5.784 25.4323 5.784C25.5496 5.784 25.6616 5.83733 25.7682 5.944C25.8749 6.04 25.9336 6.15733 25.9443 6.296C25.9443 6.30667 25.6776 6.936 25.1443 8.184C24.6216 9.38933 24.3763 10.1093 24.4083 10.344C24.8776 10.1947 25.6616 9.66667 26.7603 8.76C27.4216 8.20533 27.8963 7.704 28.1843 7.256C28.4829 6.79733 28.6323 6.38667 28.6323 6.024C28.6323 5.81067 28.5789 5.61867 28.4723 5.448C28.3763 5.26667 28.1949 5.11733 27.9283 5C27.8536 4.968 27.8163 4.92 27.8163 4.856C27.8163 4.76 27.8749 4.712 27.9923 4.712C28.3016 4.712 28.5683 4.81333 28.7923 5.016C29.0269 5.21867 29.1443 5.52267 29.1443 5.928C29.1443 6.35467 28.9629 6.84 28.6003 7.384C28.2376 7.91733 27.7203 8.488 27.0483 9.096C26.4616 9.61867 25.9283 10.0453 25.4483 10.376C24.9789 10.7067 24.5576 10.9307 24.1842 11.048ZM29.2848 11.208C28.9434 11.208 28.6341 11.1013 28.3567 10.888C28.0794 10.664 27.9408 10.3707 27.9408 10.008C27.9408 9.25067 28.4048 8.38667 29.3328 7.416C30.2821 6.43467 31.1301 5.944 31.8768 5.944C32.1221 5.944 32.3194 6.01333 32.4688 6.152C32.6288 6.28 32.7088 6.44 32.7088 6.632C32.7088 7.22933 32.2341 7.816 31.2848 8.392C30.4421 8.904 29.7328 9.16 29.1568 9.16C29.0714 9.16 28.9968 9.14933 28.9328 9.128C28.7728 9.416 28.6928 9.72 28.6928 10.04C28.6928 10.5947 28.9541 10.872 29.4768 10.872C30.0101 10.872 30.6981 10.5147 31.5408 9.8C32.1914 9.27733 32.7461 8.72267 33.2048 8.136C33.3008 8.008 33.3861 7.944 33.4608 7.944C33.5248 7.944 33.5568 7.976 33.5568 8.04C33.5568 8.104 33.5141 8.19467 33.4288 8.312C33.1301 8.70667 32.8101 9.06933 32.4688 9.4C32.1274 9.73067 31.7594 10.0347 31.3648 10.312C30.5434 10.9093 29.8501 11.208 29.2848 11.208ZM29.3808 8.808C29.7861 8.808 30.3141 8.60533 30.9648 8.2C31.1781 8.05067 31.3861 7.88533 31.5888 7.704C31.8021 7.512 31.9728 7.32 32.1008 7.128C32.2394 6.936 32.3088 6.76533 32.3088 6.616C32.3088 6.47733 32.1968 6.408 31.9728 6.408C31.6528 6.408 31.2048 6.648 30.6288 7.128C30.3514 7.36267 30.0848 7.61867 29.8288 7.896C29.5728 8.17333 29.3541 8.46667 29.1728 8.776C29.2368 8.79733 29.3061 8.808 29.3808 8.808ZM33.5701 11.096C33.2288 11.096 32.9568 11.016 32.7541 10.856C32.5621 10.6853 32.4661 10.3867 32.4661 9.96C32.4661 9.71467 32.5408 9.40533 32.6901 9.032C32.8395 8.648 33.0261 8.23733 33.2501 7.8C33.4741 7.36267 33.6981 6.93067 33.9221 6.504C33.7835 6.536 33.6608 6.552 33.5541 6.552C33.2341 6.552 33.0741 6.42933 33.0741 6.184C33.0741 6.06667 33.1168 5.976 33.2021 5.912C33.2981 5.848 33.3835 5.81067 33.4581 5.8C33.4581 5.8 33.4688 5.8 33.4901 5.8C33.5221 5.8 33.5595 5.79467 33.6021 5.784H34.5301C34.7221 5.53867 34.9195 5.27733 35.1221 5C35.4101 4.63733 35.6395 4.424 35.8101 4.36H35.8581C35.9328 4.36 36.0395 4.39733 36.1781 4.472C36.3488 4.568 36.4341 4.664 36.4341 4.76C36.4341 4.89867 36.1781 5.256 35.6661 5.832C35.7621 5.84267 35.9008 5.848 36.0821 5.848C36.2635 5.848 36.4875 5.848 36.7541 5.848C36.8821 5.848 37.0635 5.848 37.2981 5.848C37.5435 5.848 37.7941 5.848 38.0501 5.848C38.3168 5.83733 38.5461 5.832 38.7381 5.832C38.9301 5.82133 39.0368 5.816 39.0581 5.816C39.0901 5.82667 39.1061 5.84267 39.1061 5.864C39.1061 5.96 38.4768 6.088 37.2181 6.248C36.5035 6.344 35.9541 6.41867 35.5701 6.472C35.1968 6.52533 34.9941 6.55733 34.9621 6.568C34.8128 6.696 34.6315 6.91467 34.4181 7.224C34.2048 7.53333 33.9915 7.88 33.7781 8.264C33.5648 8.648 33.3835 9.016 33.2341 9.368C33.0955 9.70933 33.0261 9.976 33.0261 10.168C33.0261 10.3387 33.0901 10.4827 33.2181 10.6C33.3461 10.7067 33.5541 10.76 33.8421 10.76C34.0341 10.76 34.2635 10.7173 34.5301 10.632C34.7968 10.5467 35.0475 10.4507 35.2821 10.344C35.5275 10.2267 35.7035 10.136 35.8101 10.072C36.0875 9.90133 36.3915 9.67733 36.7221 9.4C37.0635 9.112 37.3995 8.78667 37.7301 8.424C37.8795 8.27467 37.9808 8.2 38.0341 8.2C38.0661 8.2 38.0821 8.22133 38.0821 8.264C38.0821 8.34933 38.0021 8.488 37.8421 8.68C37.5861 8.98933 37.2981 9.288 36.9781 9.576C36.6688 9.85333 36.3221 10.1093 35.9381 10.344C35.5008 10.6107 35.0795 10.8027 34.6741 10.92C34.2795 11.0373 33.9115 11.096 33.5701 11.096ZM38.5441 11.032C38.2348 11.032 37.9468 10.9573 37.6801 10.808C37.4135 10.648 37.2801 10.3867 37.2801 10.024C37.2801 9.52267 37.4561 8.92533 37.8081 8.232C38.1708 7.53867 38.5815 6.81867 39.0401 6.072C40.2881 4.04533 41.1735 3.032 41.6961 3.032C41.8028 3.032 41.9095 3.07467 42.0161 3.16C42.1335 3.23467 42.1975 3.32 42.2081 3.416L41.0881 4.92C40.6508 5.50667 40.2561 6.05067 39.9041 6.552C39.5521 7.04267 39.2481 7.48533 38.9921 7.88C38.8641 8.08267 38.7201 8.312 38.5601 8.568C38.4001 8.824 38.2561 9.09067 38.1281 9.368C38.0108 9.63467 37.9521 9.90667 37.9521 10.184C37.9521 10.312 37.9895 10.4293 38.0641 10.536C38.1388 10.632 38.2721 10.68 38.4641 10.68C38.8055 10.68 39.2535 10.4987 39.8081 10.136C40.3628 9.76267 40.9121 9.25067 41.4561 8.6C41.5095 8.536 41.5681 8.47733 41.6321 8.424C41.6961 8.37067 41.7495 8.344 41.7921 8.344C41.8455 8.344 41.8721 8.376 41.8721 8.44C41.8721 8.472 41.8348 8.536 41.7601 8.632C41.6961 8.71733 41.6428 8.78667 41.6001 8.84L41.2161 9.272C41.0028 9.50667 40.7468 9.76267 40.4481 10.04C40.1601 10.3173 39.8508 10.552 39.5201 10.744C39.2001 10.936 38.8748 11.032 38.5441 11.032ZM42.2908 11.08C42.0348 11.08 41.7788 10.9893 41.5228 10.808C41.2668 10.6267 41.1227 10.4133 41.0907 10.168C40.9841 9.34667 41.5014 8.37067 42.6428 7.24C43.7734 6.10933 44.7921 5.544 45.6988 5.544C45.9441 5.544 46.1361 5.60267 46.2748 5.72C46.3494 5.79467 46.4028 5.896 46.4348 6.024C46.4774 6.152 46.5094 6.216 46.5308 6.216C46.5734 6.216 46.6108 6.21067 46.6428 6.2C46.6748 6.17867 46.7121 6.168 46.7548 6.168C46.8828 6.168 46.9948 6.216 47.0908 6.312C47.1868 6.408 47.2401 6.49333 47.2508 6.568C47.2614 6.58933 46.9201 7.11733 46.2268 8.152C45.5334 9.16533 45.2188 9.85333 45.2828 10.216C45.3361 10.4613 45.4534 10.584 45.6348 10.584C46.1894 10.584 47.2028 9.66667 48.6748 7.832C48.7068 7.78933 48.7388 7.768 48.7708 7.768C48.8241 7.768 48.8508 7.80533 48.8508 7.88C48.8508 7.96533 48.8028 8.072 48.7068 8.2C47.3521 10.024 46.3121 10.936 45.5868 10.936C45.4907 10.936 45.4001 10.92 45.3148 10.888C44.8454 10.7067 44.6108 10.3547 44.6108 9.832C44.6108 9.65067 44.6321 9.46933 44.6748 9.288L43.6828 10.248C43.3841 10.5467 43.1121 10.76 42.8668 10.888C42.6321 11.016 42.4401 11.08 42.2908 11.08ZM42.1468 10.728C42.7654 10.728 43.6081 10.0507 44.6748 8.696L46.3708 6.36C46.2854 6.21067 46.1468 6.136 45.9548 6.136C45.3041 6.136 44.4241 6.65867 43.3148 7.704C42.1628 8.77067 41.6454 9.65067 41.7628 10.344C41.8161 10.6 41.9441 10.728 42.1468 10.728ZM51.8925 11.032C51.6045 11.032 51.4018 10.952 51.2845 10.792C51.1672 10.6213 51.1085 10.4133 51.1085 10.168C51.1085 9.54933 51.3218 8.888 51.7485 8.184L52.7725 6.52C52.0472 7.05333 51.3272 7.72 50.6125 8.52C50.4205 8.73333 50.2018 8.984 49.9565 9.272C49.7218 9.56 49.4605 9.89067 49.1725 10.264C48.7885 10.7653 48.5592 11.016 48.4845 11.016C48.3352 11.016 48.2125 10.952 48.1165 10.824C48.0205 10.6853 47.9725 10.5627 47.9725 10.456C47.9725 10.3707 47.9992 10.216 48.0525 9.992C48.1058 9.75733 48.1698 9.55467 48.2445 9.384C48.3192 9.20267 48.3938 9.02667 48.4685 8.856C48.5538 8.67467 48.6338 8.49867 48.7085 8.328L47.7485 9.336C47.7272 9.35733 47.6632 9.42133 47.5565 9.528C47.4498 9.63467 47.3645 9.688 47.3005 9.688C47.2472 9.688 47.2205 9.65067 47.2205 9.576C47.2205 9.55467 47.2312 9.528 47.2525 9.496C47.2632 9.45333 47.2952 9.40533 47.3485 9.352C47.5085 9.192 47.6738 9.02133 47.8445 8.84C48.0152 8.65867 48.1912 8.45067 48.3725 8.216C48.4685 8.09867 48.6125 7.92267 48.8045 7.688C48.9965 7.44267 49.2045 7.18133 49.4285 6.904C49.6632 6.62667 49.8818 6.37067 50.0845 6.136C50.1378 6.06133 50.1965 6.01333 50.2605 5.992C50.3245 5.96 50.3672 5.944 50.3885 5.944C50.6765 5.944 50.8205 6.056 50.8205 6.28C50.8205 6.344 50.8045 6.408 50.7725 6.472C49.8125 7.79467 49.2365 8.80267 49.0445 9.496C50.2818 8.25867 51.2738 7.33067 52.0205 6.712C52.7778 6.08267 53.3165 5.768 53.6365 5.768C53.8072 5.768 53.9352 5.79467 54.0205 5.848C54.1165 5.90133 54.1645 6.00267 54.1645 6.152C54.1645 6.20533 54.1592 6.248 54.1485 6.28C54.1165 6.35467 53.8978 6.65333 53.4925 7.176C53.2472 7.47467 53.0285 7.74667 52.8365 7.992C52.6552 8.23733 52.5058 8.45067 52.3885 8.632C52.1965 8.93067 52.0525 9.21333 51.9565 9.48C51.8605 9.736 51.8125 9.95467 51.8125 10.136C51.8125 10.2107 51.8232 10.3013 51.8445 10.408C51.8658 10.5147 51.9298 10.568 52.0365 10.568C52.2818 10.568 52.6658 10.3547 53.1885 9.928C53.4338 9.71467 53.6632 9.50133 53.8765 9.288C54.0898 9.064 54.2925 8.84533 54.4845 8.632C54.5272 8.58933 54.5965 8.50933 54.6925 8.392C54.7885 8.264 54.8472 8.2 54.8685 8.2C54.9112 8.2 54.9325 8.24267 54.9325 8.328C54.9325 8.37067 54.9058 8.44533 54.8525 8.552C54.8098 8.648 54.7618 8.72267 54.7085 8.776C54.5912 8.91467 54.4152 9.10667 54.1805 9.352C53.9565 9.59733 53.7005 9.848 53.4125 10.104C53.1352 10.36 52.8632 10.5787 52.5965 10.76C52.3298 10.9413 52.0952 11.032 51.8925 11.032ZM55.3376 11.08C55.0816 11.08 54.8256 10.9893 54.5696 10.808C54.3136 10.6267 54.1696 10.4133 54.1376 10.168C54.031 9.34667 54.5483 8.37067 55.6896 7.24C56.8203 6.10933 57.839 5.544 58.7456 5.544C58.991 5.544 59.183 5.60267 59.3216 5.72C59.3963 5.79467 59.4496 5.896 59.4816 6.024C59.5243 6.152 59.5563 6.216 59.5776 6.216C59.6203 6.216 59.6576 6.21067 59.6896 6.2C59.7216 6.17867 59.759 6.168 59.8016 6.168C59.9296 6.168 60.0416 6.216 60.1376 6.312C60.2336 6.408 60.287 6.49333 60.2976 6.568C60.3083 6.58933 59.967 7.11733 59.2736 8.152C58.5803 9.16533 58.2656 9.85333 58.3296 10.216C58.383 10.4613 58.5003 10.584 58.6816 10.584C59.2363 10.584 60.2496 9.66667 61.7216 7.832C61.7536 7.78933 61.7856 7.768 61.8176 7.768C61.871 7.768 61.8976 7.80533 61.8976 7.88C61.8976 7.96533 61.8496 8.072 61.7536 8.2C60.399 10.024 59.359 10.936 58.6336 10.936C58.5376 10.936 58.447 10.92 58.3616 10.888C57.8923 10.7067 57.6576 10.3547 57.6576 9.832C57.6576 9.65067 57.679 9.46933 57.7216 9.288L56.7296 10.248C56.431 10.5467 56.159 10.76 55.9136 10.888C55.679 11.016 55.487 11.08 55.3376 11.08ZM55.1936 10.728C55.8123 10.728 56.655 10.0507 57.7216 8.696L59.4176 6.36C59.3323 6.21067 59.1936 6.136 59.0016 6.136C58.351 6.136 57.471 6.65867 56.3616 7.704C55.2096 8.77067 54.6923 9.65067 54.8096 10.344C54.863 10.6 54.991 10.728 55.1936 10.728ZM76.0793 12.536C75.8126 12.536 75.6313 12.408 75.5353 12.152C75.4499 11.896 75.4073 11.64 75.4073 11.384C75.4073 10.4667 75.8979 9.14933 76.8793 7.432C77.5086 6.35467 78.4793 4.904 79.7913 3.08C78.3726 3.208 76.5379 4.328 74.2873 6.44C72.4953 8.136 71.2206 9.592 70.4633 10.808C70.2073 11.2027 70.0793 11.4853 70.0793 11.656C70.0793 11.7307 70.1006 11.7787 70.1433 11.8C70.1966 11.8213 70.2233 11.832 70.2233 11.832C70.2233 11.8533 70.1219 11.9333 69.9193 12.072C69.7699 12.1573 69.5833 12.2 69.3593 12.2C68.9113 12.2 68.7193 12.0987 68.7833 11.896C68.9326 11.4267 69.4286 10.5627 70.2713 9.304C71.3699 7.672 72.0846 6.55733 72.4153 5.96C73.1406 4.65867 73.5033 3.62933 73.5033 2.872C73.5033 2.33867 73.3699 1.97067 73.1033 1.768C72.8473 1.56533 72.4846 1.464 72.0153 1.464C70.7459 1.464 69.3966 2.04533 67.9673 3.208C67.3806 3.688 66.8366 4.22133 66.3353 4.808C65.8339 5.384 65.4286 5.98133 65.1193 6.6C64.8099 7.21867 64.6553 7.82667 64.6553 8.424C64.6553 9.448 65.1299 9.97067 66.0793 9.992C67.4019 10.024 68.3993 9.58133 69.0713 8.664C69.3273 8.312 69.4553 7.98133 69.4553 7.672C69.4553 7.49067 69.3966 7.368 69.2793 7.304C69.2686 7.29333 69.2633 7.27733 69.2633 7.256C69.2633 7.21333 69.2953 7.192 69.3593 7.192C69.6366 7.192 69.7753 7.37333 69.7753 7.736C69.7753 7.96 69.6846 8.24267 69.5033 8.584C69.2046 9.096 68.7619 9.50133 68.1753 9.8C67.5886 10.0987 66.9806 10.248 66.3513 10.248C65.6579 10.248 65.1033 10.04 64.6873 9.624C64.2713 9.208 64.0633 8.648 64.0633 7.944C64.0633 6.28 65.2046 4.53067 67.4873 2.696C67.8713 2.38667 68.3406 2.10933 68.8953 1.864C69.4499 1.61867 70.0206 1.42667 70.6073 1.288C71.2046 1.14933 71.7539 1.08 72.2552 1.08C72.8846 1.08 73.3806 1.20267 73.7433 1.448C74.1166 1.68267 74.3033 2.09333 74.3033 2.68C74.3033 3.43733 73.9939 4.44 73.3753 5.688C73.2366 5.96533 73.0606 6.28533 72.8472 6.648C72.6339 7.01067 72.3833 7.41067 72.0953 7.848C72.4259 7.432 72.9646 6.904 73.7113 6.264C75.0553 5.13333 76.2979 4.20533 77.4393 3.48C78.5806 2.744 79.6206 2.20533 80.5592 1.864C80.6553 1.82133 80.7619 1.8 80.8793 1.8C81.2846 1.8 81.5406 2.02933 81.6473 2.488C81.7006 2.66933 81.4446 3.048 80.8793 3.624C79.5459 4.98933 78.3939 6.51467 77.4233 8.2C76.5379 9.75733 76.0953 10.888 76.0953 11.592C76.0953 11.8907 76.1966 12.04 76.3993 12.04C76.5273 12.04 76.8473 11.928 77.3593 11.704C77.8073 11.5013 78.1006 11.384 78.2393 11.352C78.2926 11.3733 78.3193 11.4 78.3193 11.432C78.3193 11.592 78.0366 11.816 77.4713 12.104C76.9166 12.392 76.4526 12.536 76.0793 12.536ZM79.6441 11.208C79.3028 11.208 78.9935 11.1013 78.7161 10.888C78.4388 10.664 78.3001 10.3707 78.3001 10.008C78.3001 9.25067 78.7641 8.38667 79.6921 7.416C80.6415 6.43467 81.4895 5.944 82.2361 5.944C82.4815 5.944 82.6788 6.01333 82.8281 6.152C82.9881 6.28 83.0681 6.44 83.0681 6.632C83.0681 7.22933 82.5935 7.816 81.6441 8.392C80.8015 8.904 80.0921 9.16 79.5161 9.16C79.4308 9.16 79.3561 9.14933 79.2921 9.128C79.1321 9.416 79.0521 9.72 79.0521 10.04C79.0521 10.5947 79.3135 10.872 79.8361 10.872C80.3695 10.872 81.0575 10.5147 81.9001 9.8C82.5508 9.27733 83.1055 8.72267 83.5641 8.136C83.6601 8.008 83.7455 7.944 83.8201 7.944C83.8841 7.944 83.9161 7.976 83.9161 8.04C83.9161 8.104 83.8735 8.19467 83.7881 8.312C83.4895 8.70667 83.1695 9.06933 82.8281 9.4C82.4868 9.73067 82.1188 10.0347 81.7241 10.312C80.9028 10.9093 80.2095 11.208 79.6441 11.208ZM79.7401 8.808C80.1455 8.808 80.6735 8.60533 81.3241 8.2C81.5375 8.05067 81.7455 7.88533 81.9481 7.704C82.1615 7.512 82.3321 7.32 82.4601 7.128C82.5988 6.936 82.6681 6.76533 82.6681 6.616C82.6681 6.47733 82.5561 6.408 82.3321 6.408C82.0121 6.408 81.5641 6.648 80.9881 7.128C80.7108 7.36267 80.4441 7.61867 80.1881 7.896C79.9321 8.17333 79.7135 8.46667 79.5321 8.776C79.5961 8.79733 79.6655 8.808 79.7401 8.808ZM86.7135 11.032C86.4575 11.032 86.3295 10.888 86.3295 10.6C86.4468 10.0027 86.6868 9.33067 87.0495 8.584C87.2202 8.22133 87.3908 7.864 87.5615 7.512C87.7428 7.16 87.9188 6.80267 88.0895 6.44C87.6948 6.70667 87.3002 7.00533 86.9055 7.336C86.5108 7.656 86.1268 8.01867 85.7535 8.424C85.3162 8.89333 84.8095 9.496 84.2335 10.232C83.8175 10.7547 83.5775 11.016 83.5135 11.016C83.3642 11.016 83.2415 10.9467 83.1455 10.808C83.0495 10.6693 83.0015 10.552 83.0015 10.456C83.0015 10.3173 83.1242 9.96 83.3695 9.384C83.4442 9.20267 83.5188 9.02667 83.5935 8.856C83.6788 8.67467 83.7588 8.49867 83.8335 8.328L82.8735 9.336C82.8522 9.35733 82.7882 9.42133 82.6815 9.528C82.5748 9.63467 82.4895 9.688 82.4255 9.688C82.3722 9.688 82.3455 9.65067 82.3455 9.576C82.3455 9.55467 82.3562 9.528 82.3775 9.496C82.3882 9.45333 82.4202 9.40533 82.4735 9.352C82.6335 9.192 82.7988 9.02133 82.9695 8.84C83.1402 8.65867 83.3162 8.45067 83.4975 8.216C83.6362 8.03467 83.8335 7.768 84.0895 7.416C84.3562 7.05333 84.6815 6.6 85.0655 6.056C85.1828 5.896 85.3482 5.816 85.5615 5.816C85.7748 5.816 85.8815 5.91733 85.8815 6.12C85.8815 6.19467 85.6095 6.69067 85.0655 7.608C84.7882 8.09867 84.5642 8.49867 84.3935 8.808C84.2335 9.11733 84.1322 9.34667 84.0895 9.496C84.3242 9.24 84.6015 8.952 84.9215 8.632C85.2522 8.312 85.6308 7.95467 86.0575 7.56C87.3695 6.344 88.2335 5.736 88.6495 5.736C88.7668 5.736 88.8788 5.77333 88.9855 5.848C89.1028 5.92267 89.1615 6.01867 89.1615 6.136C89.1615 6.18933 88.9535 6.57867 88.5375 7.304C88.1322 8.04 87.9082 8.47733 87.8655 8.616C89.0495 7.624 89.6415 7.12267 89.6415 7.112C90.6442 6.33333 91.3642 5.944 91.8015 5.944C91.9295 5.944 92.0468 5.98667 92.1535 6.072C92.2708 6.14667 92.3295 6.23733 92.3295 6.344C92.3295 6.36533 91.9882 6.81333 91.3055 7.688C90.6015 8.57333 90.2068 9.29867 90.1215 9.864C90.0788 10.248 90.2762 10.44 90.7135 10.44C90.9802 10.44 91.3535 10.2693 91.8335 9.928C92.3135 9.58667 92.8148 9.11733 93.3375 8.52C93.4015 8.44533 93.4708 8.376 93.5455 8.312C93.6202 8.23733 93.6842 8.2 93.7375 8.2C93.8015 8.2 93.8335 8.22667 93.8335 8.28C93.8335 8.35467 93.7855 8.44 93.6895 8.536C93.4122 8.86667 93.0815 9.208 92.6975 9.56C92.3242 9.912 91.9508 10.2107 91.5775 10.456C91.2042 10.6907 90.8735 10.808 90.5855 10.808C89.8602 10.808 89.4975 10.472 89.4975 9.8C89.4975 9.56533 89.5615 9.29333 89.6895 8.984C89.8175 8.664 89.9455 8.376 90.0735 8.12C90.3828 7.52267 90.7188 6.99467 91.0815 6.536C90.7402 6.70667 90.3828 6.93067 90.0095 7.208C89.6468 7.48533 89.2682 7.81067 88.8735 8.184C87.9562 9.08 87.3268 9.98667 86.9855 10.904C86.9322 10.9893 86.8415 11.032 86.7135 11.032ZM93.7193 11.032C93.4526 11.032 93.2446 10.9093 93.0953 10.664C92.9459 10.408 92.8712 10.1627 92.8712 9.928C92.8712 9.288 93.3353 8.392 94.2633 7.24C95.2019 6.07733 95.9593 5.496 96.5353 5.496C97.0793 5.496 97.3513 5.784 97.3513 6.36C97.3513 6.44533 97.3406 6.536 97.3193 6.632C97.3086 6.728 97.2926 6.82933 97.2713 6.936C97.2926 6.968 97.3459 6.984 97.4313 6.984C97.7193 6.984 98.0606 6.88267 98.4553 6.68C98.4446 6.86133 98.0233 7.12267 97.1913 7.464C97.3086 7.816 96.9566 8.488 96.1353 9.48C95.2926 10.5147 94.5726 11.032 93.9753 11.032H93.7193ZM94.0073 10.552C94.4659 10.552 95.0526 10.1307 95.7673 9.288C96.4606 8.46667 96.8073 7.87467 96.8073 7.512C96.6366 7.416 96.4233 7.17067 96.1673 6.776C95.8046 6.776 95.2819 7.21333 94.5993 8.088C93.9273 8.94133 93.6019 9.59733 93.6233 10.056C93.6339 10.3867 93.7619 10.552 94.0073 10.552ZM98.0592 11.048C97.9953 11.048 97.9046 11.0213 97.7873 10.968C97.6699 10.904 97.5633 10.8347 97.4672 10.76C97.3712 10.6747 97.3179 10.6 97.3072 10.536C97.2966 10.4507 97.3552 10.2107 97.4832 9.816C97.6006 9.41067 97.7926 8.86133 98.0592 8.168C98.3259 7.464 98.5499 6.92 98.7313 6.536C98.9126 6.152 99.0459 5.92267 99.1313 5.848C99.1739 5.80533 99.2326 5.784 99.3073 5.784C99.4246 5.784 99.5366 5.83733 99.6432 5.944C99.7499 6.04 99.8086 6.15733 99.8193 6.296C99.8193 6.30667 99.5526 6.936 99.0193 8.184C98.4966 9.38933 98.2513 10.1093 98.2833 10.344C98.7526 10.1947 99.5366 9.66667 100.635 8.76C101.297 8.20533 101.771 7.704 102.059 7.256C102.358 6.79733 102.507 6.38667 102.507 6.024C102.507 5.81067 102.454 5.61867 102.347 5.448C102.251 5.26667 102.07 5.11733 101.803 5C101.729 4.968 101.691 4.92 101.691 4.856C101.691 4.76 101.75 4.712 101.867 4.712C102.177 4.712 102.443 4.81333 102.667 5.016C102.902 5.21867 103.019 5.52267 103.019 5.928C103.019 6.35467 102.838 6.84 102.475 7.384C102.113 7.91733 101.595 8.488 100.923 9.096C100.337 9.61867 99.8033 10.0453 99.3233 10.376C98.8539 10.7067 98.4326 10.9307 98.0592 11.048ZM103.416 11.08C103.16 11.08 102.904 10.9893 102.648 10.808C102.392 10.6267 102.248 10.4133 102.216 10.168C102.109 9.34667 102.626 8.37067 103.768 7.24C104.898 6.10933 105.917 5.544 106.824 5.544C107.069 5.544 107.261 5.60267 107.4 5.72C107.474 5.79467 107.528 5.896 107.56 6.024C107.602 6.152 107.634 6.216 107.656 6.216C107.698 6.216 107.736 6.21067 107.768 6.2C107.8 6.17867 107.837 6.168 107.88 6.168C108.008 6.168 108.12 6.216 108.216 6.312C108.312 6.408 108.365 6.49333 108.376 6.568C108.386 6.58933 108.045 7.11733 107.352 8.152C106.658 9.16533 106.344 9.85333 106.408 10.216C106.461 10.4613 106.578 10.584 106.76 10.584C107.314 10.584 108.328 9.66667 109.8 7.832C109.832 7.78933 109.864 7.768 109.896 7.768C109.949 7.768 109.976 7.80533 109.976 7.88C109.976 7.96533 109.928 8.072 109.832 8.2C108.477 10.024 107.437 10.936 106.712 10.936C106.616 10.936 106.525 10.92 106.44 10.888C105.97 10.7067 105.736 10.3547 105.736 9.832C105.736 9.65067 105.757 9.46933 105.8 9.288L104.808 10.248C104.509 10.5467 104.237 10.76 103.992 10.888C103.757 11.016 103.565 11.08 103.416 11.08ZM103.272 10.728C103.89 10.728 104.733 10.0507 105.8 8.696L107.496 6.36C107.41 6.21067 107.272 6.136 107.08 6.136C106.429 6.136 105.549 6.65867 104.44 7.704C103.288 8.77067 102.77 9.65067 102.888 10.344C102.941 10.6 103.069 10.728 103.272 10.728ZM117.389 0.340908L114.108 12.5312H112.283L115.565 0.340908H117.389ZM125.822 7.80327L118.822 10.8857V8.87216L123.615 6.94815L123.55 7.05256V6.80398L123.615 6.90838L118.822 4.98438V2.97088L125.822 6.05327V7.80327Z" fill="white"/>
</svg>
